<?xml version="1.0" encoding="iso-8859-1"?>
<!-- Generator: Adobe Illustrator 19.0.0, SVG Export Plug-In . SVG Version: 6.00 Build 0)  -->
<svg version="1.1" id="Layer_1" xmlns="http://www.w3.org/2000/svg" xmlns:xlink="http://www.w3.org/1999/xlink" x="0px" y="0px"
	 viewBox="0 0 512.008 512.008" style="enable-background:new 0 0 512.008 512.008;" xml:space="preserve">
<rect x="62.572" y="18.501" style="fill:#424ACF;" width="386.757" height="79.915"/>
<rect x="321.3" y="18.501" style="fill:#373BAE;" width="128.021" height="79.915"/>
<rect x="229.114" y="109.721" transform="matrix(0.7071 -0.7071 0.7071 0.7071 1.3479 311.3234)" style="fill:#5374FC;" width="294.721" height="88.626"/>
<polyline style="opacity:0.34;fill:#373BAE;enable-background:new    ;" points="303.598,289.573 512,81.171 294.82,173.01 
	240.928,226.902 "/>
<polygon style="fill:#5697FC;" points="191.772,272.943 0,81.171 62.67,18.501 318.733,274.437 "/>
<circle style="fill:#CCA400;" cx="253.816" cy="374.508" r="118.995"/>
<circle style="fill:#EEBF00;" cx="253.816" cy="374.508" r="91.845"/>
<path style="fill:#FFDA44;" d="M302.822,295.783L171.194,410.955c6.599,15.245,17.208,28.346,30.501,37.976l134.732-117.888
	C328.593,316.487,316.946,304.289,302.822,295.783z"/>
<path style="opacity:0.09;fill:#664400;enable-background:new    ;" d="M324.611,278.86c8.71,16.54,13.648,35.376,13.648,55.368
	c0,65.721-53.278,118.999-118.999,118.999c-26.522,0-51.015-8.681-70.8-23.351c19.924,37.833,59.622,63.631,105.351,63.631
	c65.721,0,118.999-53.278,118.999-118.999C372.81,335.311,353.854,300.542,324.611,278.86z"/>
<g>
</g>
<g>
</g>
<g>
</g>
<g>
</g>
<g>
</g>
<g>
</g>
<g>
</g>
<g>
</g>
<g>
</g>
<g>
</g>
<g>
</g>
<g>
</g>
<g>
</g>
<g>
</g>
<g>
</g>
</svg>
